<?xml version="1.0" encoding="UTF-8" standalone="no"?>
<!-- Created with Inkscape (http://www.inkscape.org/) -->

<svg
   width="150mm"
   height="150mm"
   viewBox="0 0 150 150"
   version="1.1"
   id="svg1"
   xml:space="preserve"
   inkscape:version="1.4 (e7c3feb1, 2024-10-09)"
   sodipodi:docname="ghosts-toaster.svg"
   xmlns:inkscape="http://www.inkscape.org/namespaces/inkscape"
   xmlns:sodipodi="http://sodipodi.sourceforge.net/DTD/sodipodi-0.dtd"
   xmlns="http://www.w3.org/2000/svg"
   xmlns:svg="http://www.w3.org/2000/svg"><sodipodi:namedview
     id="namedview1"
     pagecolor="#ffffff"
     bordercolor="#000000"
     borderopacity="0.25"
     inkscape:showpageshadow="2"
     inkscape:pageopacity="0.0"
     inkscape:pagecheckerboard="0"
     inkscape:deskcolor="#d1d1d1"
     inkscape:document-units="mm"
     inkscape:zoom="1"
     inkscape:cx="264"
     inkscape:cy="300.5"
     inkscape:window-width="1920"
     inkscape:window-height="942"
     inkscape:window-x="0"
     inkscape:window-y="25"
     inkscape:window-maximized="1"
     inkscape:current-layer="layer3" /><defs
     id="defs1"><clipPath
       clipPathUnits="userSpaceOnUse"
       id="clipPath2329"><path
         style="fill:#b0b0b0;stroke:none;stroke-width:0.264583"
         d="M 79.474642,80.71 83.317977,91.965476 140.96797,110.90762 111.45666,124.08476 43.512023,99.926664 58.33631,81.259048 Z"
         id="path2330"
         inkscape:label="clipOutline" /></clipPath><clipPath
       clipPathUnits="userSpaceOnUse"
       id="clipPath2331"><path
         style="display:inline;fill:#b0b0b0;stroke:none;stroke-width:0.264583"
         d="M 79.474642,80.71 83.317977,91.965476 140.96797,110.90762 111.45666,124.08476 43.512023,99.926664 58.33631,81.259048 Z"
         id="path2332"
         inkscape:label="clipOutline" /></clipPath><clipPath
       clipPathUnits="userSpaceOnUse"
       id="clipPath2336"><path
         style="display:inline;fill:#b0b0b0;stroke:none;stroke-width:0.264583"
         d="M 56.963691,95.397021 130.39881,118.86881 126.00643,189.69595 13.863452,169.10667 21.824643,89.220236 Z"
         id="path2337"
         inkscape:label="clipShade"
         sodipodi:nodetypes="cccccc" /></clipPath></defs><g
     inkscape:label="Behind Toast"
     inkscape:groupmode="layer"
     id="layer1"
     transform="translate(-35.024857,-68.916094)"><path
       id="path4490"
       inkscape:connector-curvature="0"
       sodipodi:nodetypes="ccccccccc"
       style="stroke-width:1.05997px"
       d="m 43.213043,167.38148 c -0.164402,4.80592 -3.464206,9.38798 6.874247,14.94457 21.7655,12.0572 46.294351,21.90436 72.03051,30.78482 7.4054,2.06016 14.66579,4.6995 23.61197,0.59778 4.81006,-1.36684 7.72244,-4.63134 10.16197,-8.3687 -2.17623,1.19098 9.8002,-2.8773 16.13916,-8.96643 0.28604,1.30801 1.84796,1.34013 3.28772,1.49446 5.4277,-7.38558 1.62176,-9.49461 2.09218,-14.04783 L 43.21813,167.37996 Z"
       inkscape:label="base" /><path
       id="path4488"
       inkscape:connector-curvature="0"
       sodipodi:nodetypes="ccccccccccc"
       style="opacity:0.98;fill:#b0b0b0;stroke:#000000;stroke-width:0.427572px"
       d="m 40.223917,166.4911 2.689895,4.48327 c 25.752061,10.69407 36.579692,17.94429 80.697918,32.8772 5.30718,1.54121 11.34595,0.1125 15.8413,0.89666 12.94228,0.30691 26.65304,-9.33318 38.8544,-16.43808 l 1.19554,-3.58663 c -1.81054,-0.46501 8.83064,-56.59093 -23.01415,-80.10009 C 132.91713,91.813644 118.69334,91.15646 102.68986,88.185354 89.534529,86.095616 79.958727,87.565365 63.536554,94.461882 51.155002,102.36049 48.731902,106.91976 44.109356,125.84453 l -3.885439,40.64787 z"
       inkscape:label="mainToasterShade" /><path
       id="path4502"
       inkscape:connector-curvature="0"
       sodipodi:nodetypes="ccccc"
       style="stroke-width:1.05997px"
       d="m 85.895004,99.161572 c 2.501537,-1.810117 6.141593,-2.937081 10.038798,-3.909819 17.056038,4.297346 31.351898,8.594587 45.966818,12.891407 -1.7338,1.59642 -4.0702,3.08335 -8.87633,4.12117 -17.44293,-4.88775 -32.46699,-9.04973 -47.129604,-13.103394 z"
       inkscape:label="backToastSlot" /><path
       id="path4508"
       inkscape:connector-curvature="0"
       sodipodi:nodetypes="cccccccsscccc"
       style="display:inline;fill:#919191;stroke-width:1.05997"
       d="m 63.985347,99.087374 10.759793,3.287726 3.287721,-1.34501 7.621529,1.04609 4.333808,-1.79326 -5.080984,-1.345002 10.31153,-4.034896 c 0,0 18.380996,4.632721 23.163606,5.828158 4.78217,1.19555 22.71523,6.57545 23.91088,6.57545 1.19555,0 9.11588,-1.64381 9.11588,-1.64381 -6.26126,-5.02025 -21.34893,-9.873872 -48.71744,-14.496205 -4.134539,0.558998 -8.269072,0.672097 -12.403817,-0.747208 -13.770119,0.814792 -20.355735,4.332007 -26.302188,8.667617 z"
       inkscape:label="topPanelRearShade" /><path
       id="path2325"
       sodipodi:nodetypes="ccccccc"
       style="display:inline;fill:none;stroke:#c3c3c3;stroke-width:0.418414px"
       inkscape:connector-curvature="0"
       d="m 66.663901,100.85753 c -6.105555,-0.73882 -3.115263,-2.476098 -0.413591,-4.230779 5.001485,-3.354923 12.786462,-5.826887 24.401654,-7.084016 3.503531,1.334719 7.390137,1.940388 11.994666,1.180705 16.85675,4.092558 34.78197,5.132922 49.63114,14.95517 -5.1255,4.97923 -14.58948,8.92646 -28.53767,11.80705 -21.8132,-6.77069 -39.631354,-11.93531 -57.076401,-16.62781 z"
       inkscape:label="topPanelOutlineBack" /><path
       id="path2326"
       inkscape:connector-curvature="0"
       sodipodi:nodetypes="ccccccc"
       style="mix-blend-mode:normal;fill:none;stroke:#000000;stroke-width:0.427572px"
       d="m 66.29397,100.84693 c -6.153041,-0.76557 -3.13943,-2.565666 -0.416792,-4.383839 5.040281,-3.476396 12.8861,-6.037716 24.591389,-7.340424 3.530667,1.383054 7.447482,2.010558 12.086883,1.223422 16.98713,4.240637 35.05226,5.31863 50.01697,15.496821 -5.16525,5.15942 -14.70289,9.24954 -28.7592,12.23421 -21.98279,-7.01575 -39.938749,-12.36777 -57.518413,-17.22987 z"
       inkscape:label="topPanelOutlineBack2" /></g><g
     inkscape:groupmode="layer"
     id="layer2"
     inkscape:label="Toast 1"
     style="display:inline"
     transform="translate(-35.024857,-68.916094)"><g
       id="g2306"
       transform="matrix(0.86462941,0.49919403,0,1.0015528,-41.3321,-78.815176)"
       inkscape:label="toast1"><path
         style="fill:#ffffff;stroke:none"
         d="m 173.64329,72.624457 c 21.71342,-3.912109 28.3719,28.766993 6.44004,32.513973 -20.69004,3.53481 -27.12752,-28.786707 -6.44004,-32.513973"
         id="path2312" /><path
         id="path2304"
         style="fill:#504416;stroke:#808080"
         d="m 178.34054,66.512219 c -3.05339,0.01943 -5.98101,0.315637 -8.37727,0.692981 -15.34497,2.416402 -20.47584,26.075246 -11.31352,38.06331 5.25522,6.87597 18.3655,6.49658 26.03355,5.28908 15.34496,-2.4164 20.47584,-26.074726 11.31352,-38.06279 -3.61296,-4.727233 -10.93883,-6.025321 -17.65628,-5.982581 z m -0.80564,5.791378 c 18.54251,0.380477 23.1098,29.321893 2.54868,32.834693 -20.69004,3.53481 -27.12791,-28.786516 -6.44043,-32.513782 1.35709,-0.244507 2.65558,-0.346276 3.89175,-0.320911 z" /><path
         style="fill:#28220b;stroke:#808080"
         d="m 175.4833,75.549167 c -15.38128,2.22742 -14.24597,28.526383 2.76002,26.015723 18.15446,-2.680216 14.18513,-28.46961 -2.76002,-26.015723 z"
         id="path2306" /></g></g><g
     inkscape:groupmode="layer"
     id="layer5"
     inkscape:label="Between Toast"
     transform="translate(-35.024857,-68.916094)"><path
       style="fill:#b0b0b0;stroke:none;stroke-width:0.264583"
       d="m 92.899384,101.07349 57.659346,15.76088 -56.496716,16.71837 -7.099872,-31.24793 z"
       id="path2324"
       sodipodi:nodetypes="ccccc"
       inkscape:label="coverToast1" /><path
       id="path4504"
       inkscape:connector-curvature="0"
       sodipodi:nodetypes="ccccc"
       style="stroke-width:1.05997px"
       d="m 75.854933,102.43689 c 1.336944,-0.86539 2.856417,-1.45693 4.755254,-1.4794 15.914445,4.65646 32.782863,8.35874 47.446543,14.26512 -1.36514,0.85493 -2.80989,1.94845 -3.90982,2.00781 L 75.852389,102.43318 Z"
       inkscape:label="frontToastSlot" /></g><g
     inkscape:groupmode="layer"
     id="layer3"
     inkscape:label="Toast 2"
     transform="translate(-35.024857,-68.916094)"><g
       id="g2340"
       transform="matrix(0.86462941,0.49919403,0,1.0015528,-51.764005,-56.853271)"
       inkscape:label="toast2"
       style="display:inline"><path
         style="fill:#ffffff;stroke:none"
         d="m 173.64329,72.624457 c 21.71342,-3.912109 28.3719,28.766993 6.44004,32.513973 -20.69004,3.53481 -27.12752,-28.786707 -6.44004,-32.513973"
         id="path2338" /><path
         id="path2339"
         style="fill:#504416;stroke:#808080"
         d="m 178.34054,66.512219 c -3.05339,0.01943 -5.98101,0.315637 -8.37727,0.692981 -15.34497,2.416402 -20.47584,26.075246 -11.31352,38.06331 5.25522,6.87597 18.3655,6.49658 26.03355,5.28908 15.34496,-2.4164 20.47584,-26.074726 11.31352,-38.06279 -3.61296,-4.727233 -10.93883,-6.025321 -17.65628,-5.982581 z m -0.80564,5.791378 c 18.54251,0.380477 23.1098,29.321893 2.54868,32.834693 -20.69004,3.53481 -27.12791,-28.786516 -6.44043,-32.513782 1.35709,-0.244507 2.65558,-0.346276 3.89175,-0.320911 z" /><path
         style="fill:#28220b;stroke:#808080"
         d="m 175.4833,75.549167 c -15.38128,2.22742 -14.24597,28.526383 2.76002,26.015723 18.15446,-2.680216 14.18513,-28.46961 -2.76002,-26.015723 z"
         id="path2340" /></g></g><g
     inkscape:groupmode="layer"
     id="layer4"
     inkscape:label="Above Toast"
     transform="translate(-35.024857,-68.916094)"><path
       id="path2333"
       inkscape:connector-curvature="0"
       sodipodi:nodetypes="ccccccccccc"
       style="display:inline;opacity:1;fill:#b0b0b0;stroke:#000000;stroke-width:0.427572px"
       d="m 35.238643,163.4413 2.689895,4.48327 c 25.752061,10.69407 36.579692,17.94429 80.697922,32.8772 5.30718,1.54121 11.34595,0.1125 15.8413,0.89666 12.94228,0.30691 26.65304,-9.33318 38.8544,-16.43808 l 1.19554,-3.58663 c -1.81054,-0.46501 8.83064,-56.59093 -23.01415,-80.10009 C 127.93186,88.763847 113.70807,88.106663 97.704589,85.135557 84.549255,83.045819 74.973453,84.515568 58.55128,91.412085 46.169728,99.310691 43.746628,103.86996 39.124082,122.79473 l -3.885439,40.64787 z"
       inkscape:label="mainToasterShade"
       clip-path="url(#clipPath2336)"
       transform="translate(4.9852744,3.0497971)" /><path
       id="path4518"
       inkscape:connector-curvature="0"
       sodipodi:nodetypes="ccccc"
       style="fill:#919191;stroke-width:1.05997px"
       d="m 121.71151,120.19145 c 7.98181,25.23904 11.60247,52.11255 10.56709,80.7329 13.29313,5.60175 29.40049,-7.09377 44.80403,-15.21698 -0.68621,-27.6685 2.99665,-56.79339 -20.28896,-76.92865 -12.19076,8.26917 -24.01582,13.25815 -35.08301,11.41273 z"
       inkscape:label="handlePanel" /><path
       id="path4528"
       inkscape:connector-curvature="0"
       sodipodi:nodetypes="cc"
       style="stroke:#050505;stroke-width:1.28267"
       d="m 148.17905,126.60429 c 12.72499,12.48967 15.13537,56.87819 12.15048,59.60869"
       inkscape:label="handleSlot" /><rect
       id="rect4538"
       style="opacity:0.98;fill:#000000;stroke-width:1.05997"
       transform="rotate(-24.227001)"
       height="10.759793"
       width="20.323935"
       y="179.3864"
       x="73.375847"
       inkscape:label="handle2" /><rect
       id="rect4522"
       style="opacity:0.98;fill:#241f1c;stroke-width:1.05997"
       transform="rotate(-24.227001)"
       height="10.759793"
       width="20.323935"
       y="177.6268"
       x="73.83905"
       inkscape:label="handle" /><path
       id="path4520"
       inkscape:connector-curvature="0"
       sodipodi:nodetypes="cccc"
       style="fill:#919191;stroke-width:1.05997px"
       d="m 59.159287,102.86088 c -16.456092,11.69681 -14.078571,39.32927 -16.907641,62.55753 l 82.846484,34.23715 C 99.086376,169.8279 14.203683,175.65776 59.153987,102.85876 Z"
       inkscape:label="frontPanelShade" /><path
       id="path4506"
       sodipodi:nodetypes="ccccccc"
       style="display:inline;fill:none;stroke:#c3c3c3;stroke-width:0.418414px"
       inkscape:connector-curvature="0"
       d="m 61.678627,97.807733 c -6.105555,-0.738823 -3.115263,-2.476098 -0.413591,-4.230779 5.001485,-3.354923 12.786462,-5.826887 24.401654,-7.084016 3.503531,1.334719 7.390137,1.940388 11.994662,1.180705 16.856758,4.092558 34.781978,5.132922 49.631148,14.955167 -5.1255,4.97923 -14.58948,8.92646 -28.53767,11.80705 -21.8132,-6.77069 -39.631358,-11.93531 -57.076405,-16.627809 z"
       inkscape:label="topPanelOutline"
       clip-path="url(#clipPath2331)"
       transform="translate(4.9852744,3.0497971)" /><path
       id="path4500"
       inkscape:connector-curvature="0"
       sodipodi:nodetypes="ccccccc"
       style="display:inline;mix-blend-mode:normal;fill:none;stroke:#000000;stroke-width:0.427572px"
       d="m 61.308696,97.797133 c -6.153041,-0.765566 -3.13943,-2.565666 -0.416792,-4.383839 5.040281,-3.476396 12.8861,-6.037716 24.591389,-7.340424 3.530667,1.383054 7.447482,2.010558 12.086881,1.223422 16.987136,4.240637 35.052266,5.31863 50.016976,15.496818 -5.16525,5.15942 -14.70289,9.24954 -28.7592,12.23421 C 96.845152,108.01157 78.889197,102.65955 61.309533,97.797451 Z"
       inkscape:label="topPanelOutline2"
       clip-path="url(#clipPath2329)"
       transform="translate(4.9852744,3.0497971)" /><path
       style="display:none;fill:#b0b0b0;stroke:none;stroke-width:0.264583"
       d="M 79.474641,80.709999 83.317976,91.965475 140.96797,110.90762 111.45666,124.08476 43.512022,99.926665 58.336309,81.259047 Z"
       id="path2328"
       inkscape:label="clipOutline" /><path
       style="display:none;fill:#b0b0b0;stroke:none;stroke-width:0.264583"
       d="m 56.96369,95.397022 73.70964,22.236428 2.60798,91.41643 -119.417858,-39.94321 7.961191,-79.886433 z"
       id="path2334"
       inkscape:label="clipShade" /></g></svg>
